<svg xmlns="http://www.w3.org/2000/svg" xmlns:xlink="http://www.w3.org/1999/xlink" version="1.1" width="300" height="80" viewBox="0 0 300 80" xml:space="preserve">
<desc>Created with Fabric.js 3.5.0</desc>
<defs>
</defs>
<rect x="0" y="0" width="100%" height="100%" fill="rgba(255,255,255,0)"/>
<g transform="matrix(0.4591 0 0 0.2607 149.6666 38.9882)" id="888175">
<g style="" vector-effect="non-scaling-stroke">
		<g transform="matrix(1 0 0 1 64.4 -87.6)" id="layer">
<path style="stroke: none; stroke-width: 1; stroke-dasharray: none; stroke-linecap: butt; stroke-dashoffset: 0; stroke-linejoin: miter; stroke-miterlimit: 4; is-custom-font: none; font-file-url: none; fill: rgb(215,25,32); fill-rule: nonzero; opacity: 1;" transform=" translate(-390.4, -238.4)" d="M 362.2 214 L 313 247.5 c 106.5 3.1 178.9 -30.9 178.9 -30.9 c -77.2 37.6 -158.7 40.9 -192.9 40.4 l -58.6 40 c 0 0 183.3 -4.6 300 -117.2 C 540.3 179.9 468.2 233.3 362.2 214" stroke-linecap="round"/>
</g>
		<g transform="matrix(1 0 0 1 -5.2132 54.1111)" id="layer">
<path style="stroke: none; stroke-width: 1; stroke-dasharray: none; stroke-linecap: butt; stroke-dashoffset: 0; stroke-linejoin: miter; stroke-miterlimit: 4; is-custom-font: none; font-file-url: none; fill: rgb(19,66,118); fill-rule: nonzero; opacity: 1;" transform=" translate(-320.7869, -380.1111)" d="M 582.7 296.3 L 582.7 296.3 h -4.8 c 0 0 2.2 3.2 -0.9 7.7 l -40.6 55.3 l 4.9 -52.6 c 1 -6.8 6.3 -10.4 6.3 -10.4 h -17.3 v 0 h -43.8 l -46.3 63 l 4.9 -52.3 c 0 0 0.1 -0.1 0.1 -0.1 c 0.9 -6.8 6.3 -10.5 6.3 -10.5 h -5.4 v 0 l -55.7 0 v 0 c -2.9 -0.1 -142.5 -6.6 -163.4 30.6 c 8.6 -17.3 14.4 -29.9 14.8 -30.4 H 140.5 c 1.1 0.3 6.6 3.4 4.8 8.6 v 0 c -5.3 18 -18.1 59.7 -32.5 90.6 c -18.8 40.5 -61.2 55.3 -90.2 65.6 c -2.7 1 -2.3 2.9 0.5 2.9 c 71.5 0.4 130.3 -5.3 174.7 -82.3 c 10.3 -17.8 20.4 -37.4 28.3 -53.3 c -0.5 1.2 -0.9 2.4 -1.2 3.7 c -9.1 41.5 68.5 44.2 67.3 54.1 c -1 8.7 -47.3 6.1 -77.8 -4 c -0.2 -0.1 -0.3 -0.1 -0.4 -0.2 c -5.9 -1.9 -8.3 -5.4 -8.3 -5.4 l 0.3 2.4 l 0 0 c 0 0 0 0.2 0.1 0.4 l 1.2 11.1 c 1.2 11.7 2.8 28.1 2.8 28.1 s 161.6 20.4 164.6 -32.1 c 2.2 -39.8 -75.6 -44.6 -74.7 -53.3 c 0.8 -8.2 38.7 -9.2 61.7 -5.8 c 0.1 0 0.1 0 0.2 0 c 10.3 1.6 11.7 7.2 11.7 7.2 l 1.7 -3.9 h 0 c 0 -0.2 13.9 -31.9 15.1 -34.7 L 380 408 v 0 c -0.9 6.8 -6.3 10.5 -6.3 10.5 h 10.9 l 50.1 0 l 46.4 -63 l -4.9 52.6 c -0.9 6.8 -6.3 10.5 -6.3 10.5 h 5.3 v 0 l 55.7 0 l 89.9 -122.2 L 582.7 296.3 z" stroke-linecap="round"/>
</g>
</g>
</g>
</svg>